<?xml version="1.0" standalone="no"?>
<!DOCTYPE svg PUBLIC "-//W3C//DTD SVG 20010904//EN"
 "http://www.w3.org/TR/2001/REC-SVG-20010904/DTD/svg10.dtd">
<svg version="1.0" xmlns="http://www.w3.org/2000/svg"
 width="260.000000pt" height="260.000000pt" viewBox="0 0 260.000000 260.000000"
 preserveAspectRatio="xMidYMid meet">
<metadata>
Created by potrace 1.14, written by Peter Selinger 2001-2017
</metadata>
<g transform="translate(0.000000,260.000000) scale(0.100000,-0.100000)"
fill="#000000" stroke="none">
<path d="M377 2517 c-10 -27 -5 -210 9 -302 17 -118 22 -141 39 -181 12 -29
17 -33 42 -28 272 50 572 -148 759 -502 l36 -69 -6 55 c-23 193 -207 561 -386
769 -132 153 -294 256 -421 268 -53 4 -67 2 -72 -10z"/>
<path d="M2097 2519 c-80 -19 -198 -90 -285 -173 -212 -201 -433 -605 -467
-853 l-7 -48 45 77 c139 240 311 403 489 462 82 28 167 37 233 25 29 -5 44 -3
57 8 37 33 81 352 64 467 l-7 46 -42 -1 c-23 -1 -59 -5 -80 -10z"/>
<path d="M507 1907 c-31 -6 -51 -16 -58 -29 -24 -45 22 -346 72 -473 26 -64
40 -75 45 -35 10 71 41 118 98 147 31 16 137 22 186 10 125 -29 253 -107 368
-224 55 -57 62 -61 56 -36 -11 47 -91 201 -140 270 -183 256 -437 406 -627
370z"/>
<path d="M1930 1901 c-76 -25 -142 -58 -200 -99 -174 -124 -324 -316 -394
-507 l-26 -70 45 52 c87 98 234 199 345 236 158 52 284 14 323 -98 8 -22 13
-48 11 -57 -4 -27 14 -21 30 10 13 25 42 114 50 158 3 11 9 40 15 66 31 136
35 283 8 302 -20 15 -168 19 -207 7z"/>
<path d="M828 1325 c-2 -2 -29 -5 -60 -9 -67 -7 -123 -28 -155 -58 -20 -18
-22 -29 -18 -70 5 -52 35 -131 63 -161 50 -57 140 -88 234 -82 114 8 217 76
268 178 16 33 30 72 30 87 0 24 -8 31 -58 53 -63 27 -179 54 -254 60 -27 2
-49 3 -50 2z"/>
<path d="M1717 1324 c-1 -1 -28 -5 -59 -8 -54 -7 -160 -38 -220 -66 -36 -17
-36 -47 -3 -118 31 -67 94 -128 165 -160 44 -21 70 -25 135 -25 89 0 134 16
188 63 59 51 103 187 76 236 -14 28 -88 61 -154 69 -60 7 -124 12 -128 9z"/>
<path d="M1269 1157 c-68 -108 -77 -140 -54 -199 6 -15 3 -16 -27 -7 -30 8
-35 7 -56 -18 -26 -32 -46 -67 -56 -101 -7 -20 -5 -21 16 -14 20 8 45 8 96 3
8 0 28 -15 45 -33 42 -42 97 -43 128 -4 25 32 82 48 132 37 36 -9 37 -8 31 12
-11 37 -31 71 -57 99 -22 24 -29 26 -57 18 -27 -8 -31 -7 -26 6 15 39 16 61 4
94 -14 38 -80 150 -88 150 -3 0 -17 -19 -31 -43z"/>
<path d="M700 817 c0 -6 18 -75 40 -152 22 -77 40 -141 40 -141 0 -6 73 -44
77 -40 2 2 -3 51 -11 108 -9 56 -17 115 -19 130 -2 21 -17 37 -65 67 -34 23
-62 35 -62 28z"/>
<path d="M1836 788 c-33 -21 -61 -46 -63 -56 -1 -9 -5 -39 -8 -66 -4 -27 -8
-56 -10 -65 -1 -9 -6 -40 -10 -70 l-7 -54 41 24 c22 12 43 30 45 38 52 179 77
274 74 280 -2 4 -30 -10 -62 -31z"/>
<path d="M876 670 c3 -30 7 -57 9 -60 2 -3 6 -34 10 -70 4 -36 11 -72 16 -82
9 -17 126 -61 140 -53 4 3 6 15 4 28 -2 12 -6 63 -10 112 -9 133 -5 127 -95
155 l-80 26 6 -56z"/>
<path d="M1648 701 c-42 -15 -79 -29 -82 -31 -2 -3 -7 -54 -11 -115 -4 -60 -9
-120 -10 -132 -1 -13 -1 -23 0 -23 19 0 136 44 142 53 8 14 10 22 18 92 3 28
8 61 10 75 11 70 16 110 13 109 -2 -1 -38 -13 -80 -28z"/>
<path d="M1086 568 c4 -57 8 -112 9 -123 1 -11 3 -27 4 -37 1 -16 33 -23 136
-30 l40 -3 1 138 c1 95 -2 137 -10 138 -6 1 -33 2 -61 4 -27 2 -67 6 -88 9
l-38 6 7 -102z"/>
<path d="M1499 666 c-2 -2 -42 -7 -89 -10 -47 -3 -86 -5 -87 -6 -2 0 -3 -61
-3 -135 0 -131 1 -138 30 -137 22 0 144 13 146 15 3 3 11 80 19 183 6 71 -1
105 -16 90z"/>
<path d="M800 453 c0 -36 56 -232 71 -245 27 -26 31 -22 24 22 -3 22 -8 59
-11 83 -9 68 -15 100 -20 109 -8 12 -64 40 -64 31z"/>
<path d="M1763 442 c-27 -13 -33 -22 -39 -61 -3 -25 -8 -59 -11 -76 -10 -64
-13 -115 -7 -115 21 0 45 53 68 151 15 61 26 112 24 114 -2 1 -17 -4 -35 -13z"/>
<path d="M931 283 c10 -65 18 -123 19 -129 0 -10 106 -64 124 -64 4 0 4 35 1
78 -3 42 -7 101 -10 130 -2 30 -5 55 -7 56 -1 1 -30 10 -63 20 -33 10 -65 20
-71 23 -7 2 -4 -37 7 -114z"/>
<path d="M1610 377 c-36 -12 -66 -21 -67 -22 -2 0 -11 -84 -19 -182 -7 -94 -8
-94 77 -53 l47 23 11 71 c14 90 24 186 20 185 -2 0 -33 -10 -69 -22z"/>
<path d="M1106 334 c-3 -9 -4 -19 -2 -23 2 -3 7 -53 10 -111 5 -74 11 -108 21
-116 8 -6 44 -12 79 -13 l65 -2 0 118 c-1 65 -3 125 -5 133 -2 10 -19 16 -51
17 -27 2 -62 5 -79 8 -23 4 -33 1 -38 -11z"/>
<path d="M1459 346 c-2 -3 -34 -6 -69 -8 l-65 -4 -3 -132 -3 -132 58 1 c65 1
97 9 100 24 1 6 5 58 8 115 4 58 9 113 11 123 2 11 -3 17 -15 17 -10 0 -20 -2
-22 -4z"/>
</g>
</svg>
