<svg id="f45a4e93-f115-4d1d-b144-fe495aa65675" data-name="Capa 1" xmlns="http://www.w3.org/2000/svg" xmlns:xlink="http://www.w3.org/1999/xlink" viewBox="0 0 1081.01 223.73"><defs><style>.b32ffa85-bc68-47dd-9ae0-661323ff2209{fill:none;}.f2986027-c3e2-4992-b8ad-b7c46c3607ad{clip-path:url(#b1106bf2-c6e3-410d-be5a-514ca69bb6b1);}.a05ab00d-8a1e-44ad-aba4-2a8438938317{fill:#009245;}.bb3292a8-ce88-43cc-81b5-1a75e3c101b0{opacity:0.6;}.e682f2f7-cf81-4a56-a69f-fa1f522b4331{clip-path:url(#ac40ee90-f345-4b3c-88a7-56b6531ec7cf);}</style><clipPath id="b1106bf2-c6e3-410d-be5a-514ca69bb6b1"><rect class="b32ffa85-bc68-47dd-9ae0-661323ff2209" width="1081.01" height="223.73"/></clipPath><clipPath id="ac40ee90-f345-4b3c-88a7-56b6531ec7cf"><rect class="b32ffa85-bc68-47dd-9ae0-661323ff2209" y="-517.49" width="1081.01" height="98.49"/></clipPath></defs><g class="f2986027-c3e2-4992-b8ad-b7c46c3607ad"><path class="a05ab00d-8a1e-44ad-aba4-2a8438938317" d="M-21-74.35c139.68,62,278.88,51.5,465.56,10.25,32.09-7.09,66.06-9.13,101.43-8q19.3.63,39.1,2.4c161.74,14.13,347.34,77.32,512,22.24,215.11-71.92,306.65-74.44,362.18-44.31L1461.8,295c-61.32-9.67-132.51-8.72-239,24.86-15.36,4.84-84.26-12.76-99.64-7.81-129.29,41.66-221-105.1-383.51-75.56-136.55,24.83-295.14,39.09-493.2,32.22C-27.84,259.26-200,220.18-294.61,190l-1.65-249C-232.84-106.14-137.87-126.17-21-74.35Z"/></g></svg>