<svg id="b18d6095-70ec-4d48-9126-dfd6e23b8df7" data-name="Capa 1" xmlns="http://www.w3.org/2000/svg" xmlns:xlink="http://www.w3.org/1999/xlink" viewBox="0 0 1081.01 98.49"><defs><style>.af35665c-c68a-4754-b523-1cd341226382{fill:none;}.b51054eb-0ed1-44b6-a15e-69629ba47513{clip-path:url(#a0eaaeed-890a-4497-ab18-2d0a7385e954);}.a1d65f60-1916-43e5-a972-f48a7525dbe2{fill:#387507;}.ea7cfc8f-b877-4b81-8258-64a7feac26b8{fill:#009245;}.bae8fd66-229c-4e49-a287-6888d224cf6d{opacity:0.6;}</style><clipPath id="a0eaaeed-890a-4497-ab18-2d0a7385e954"><rect class="af35665c-c68a-4754-b523-1cd341226382" width="1081.01" height="98.49"/></clipPath></defs><g class="b51054eb-0ed1-44b6-a15e-69629ba47513"><path class="a1d65f60-1916-43e5-a972-f48a7525dbe2" d="M909.49,90c2.26.91,5-.41,6.18-3,.16-.31.47-1.34,1.13-2.81l2.49-5.76c1.11-2.25,2.34-4.85,3.74-7.56s2.93-5.55,4.66-8.25l2.48-4.08,2.55-3.84C934.34,52.19,936,50,937.41,48s2.62-3.48,3.49-4.56l1.35-1.7c1.83-2.3,1.57-2.57-.61-.58L940,42.67c-1,.94-2.52,2.28-4.2,4s-3.73,3.68-5.75,5.95l-3.18,3.47-3.16,3.75c-2.18,2.48-4.09,5.2-6,7.7s-3.53,5-5,7.23l-3.46,5.66c-.9,1.46-1.36,2.52-1.54,2.85C906.41,86.06,907.23,89.05,909.49,90Z"/><path class="a1d65f60-1916-43e5-a972-f48a7525dbe2" d="M925.78,86.19c1.8.93,4.11,0,5.26-2.09.56-1,5-10.94,11-19.58a70.77,70.77,0,0,1,9.17-11c.71-.66,1.35-1.29,1.95-1.8l1.58-1.31a11.51,11.51,0,0,1,1-.8l.37-.27c2-1.4,1.83-1.69-.36-.59l-.42.21c-.28.14-.69.34-1.18.64l-1.81,1.07c-.68.43-1.43,1-2.27,1.51A72.85,72.85,0,0,0,938.94,62a121.37,121.37,0,0,0-14.28,18.58C923.45,82.75,924,85.28,925.78,86.19Z"/><path class="a1d65f60-1916-43e5-a972-f48a7525dbe2" d="M933.66,85.8a3.14,3.14,0,0,0,2.39.61,4.33,4.33,0,0,0,2.32-1.15,41.44,41.44,0,0,1,4.52-4.33A78.7,78.7,0,0,1,953.31,74c4-2.26,8-4.42,10.89-6.16s4.78-3,4.78-3c1.73-1.16,1.59-1.39-.29-.52,0,0-2,1-5.14,2.19s-7.38,2.74-11.7,4.4a78.85,78.85,0,0,0-12,5.6A34.85,34.85,0,0,0,934,80.83a4,4,0,0,0-1.28,2.72A2.58,2.58,0,0,0,933.66,85.8Z"/><path class="a1d65f60-1916-43e5-a972-f48a7525dbe2" d="M776,69.7c2.62-.3,4.44-3.08,4.06-6.23-.16-1.59-3-15.79-5.67-29.56-1.24-6.89-2.6-13.7-3.3-18.8l-1.31-8.49c-.49-3.14-.9-3.12-.91.06,0,0,0,3.42,0,8.61s.18,12.14.36,19.2c.53,14.11,1.22,28.53,1.38,30.08C771,67.71,773.42,70,776,69.7Z"/><path class="a1d65f60-1916-43e5-a972-f48a7525dbe2" d="M778,71.65c1.78-1.13,2.17-3.76.87-5.88-.66-1-7.37-10.29-12.85-20l-2-3.6-1.84-3.54c-1.23-2.28-2.2-4.47-3.06-6.34s-1.51-3.45-1.94-4.56L756.42,26c-.94-2.36-1.26-2.28-.7.2l.41,1.85c.26,1.18.62,2.87,1.22,4.86s1.2,4.37,2.07,6.85c.42,1.25.86,2.54,1.3,3.86l1.49,3.95a194.44,194.44,0,0,0,10.11,22.16C773.67,71.93,776.2,72.78,778,71.65Z"/><path class="a1d65f60-1916-43e5-a972-f48a7525dbe2" d="M780.61,61.3a2.7,2.7,0,0,0,2.29-2.91c0-.38-.19-2.32-.46-5-.08-1.36-.1-2.9-.16-4.54q0-1.23-.09-2.52L782.14,45l.05-1.28a91.72,91.72,0,0,1,.6-9.37c.31-2.54.52-4.21.52-4.21.2-1.56,0-1.62-.44-.11l-1.18,4.11a88.44,88.44,0,0,0-2.07,9.34l-.26,1.31-.15,1.3c-.1.87-.21,1.73-.3,2.57-.19,1.67-.4,3.27-.52,4.66-.14,2.8-.22,4.82-.21,5.22A2.55,2.55,0,0,0,780.61,61.3Z"/><path class="a1d65f60-1916-43e5-a972-f48a7525dbe2" d="M228.09,72.61a2.9,2.9,0,0,0,.2-3.92c-.28-.28-1.5-1.9-3.2-4.21-.78-1.22-1.72-2.57-2.63-4.08s-1.88-3.09-2.73-4.75c-.45-.81-.89-1.63-1.32-2.43l-1.21-2.38c-.8-1.54-1.49-3-2.09-4.23-1.21-2.48-2-4.14-2-4.14-.72-1.53-.92-1.46-.45.17,0,0,.49,1.76,1.3,4.4.4,1.33.86,2.88,1.41,4.54l.84,2.57c.31.87.63,1.76.94,2.65.61,1.8,1.38,3.56,2,5.26s1.47,3.24,2.1,4.63a45.57,45.57,0,0,0,2.86,5C225.28,73.13,227,73.54,228.09,72.61Z"/><path class="a1d65f60-1916-43e5-a972-f48a7525dbe2" d="M177.19,82c1.58,1.2,4.05.71,5.53-1.1.37-.46,2.07-2.88,4.44-6.28l4.26-5.49,2.35-3c.41-.51.81-1,1.21-1.55L196.26,63c3.4-4,6.7-8.06,9.33-10.94l4.29-4.84c1.58-1.79,1.37-2-.48-.5l-5,4.12c-3.06,2.45-7,5.94-11,9.44l-1.5,1.31L190.45,63l-2.83,2.69c-1.85,1.77-3.62,3.42-5.14,4.92-2.91,3.09-5,5.35-5.39,5.82C175.56,78.32,175.6,80.81,177.19,82Z"/><path class="a1d65f60-1916-43e5-a972-f48a7525dbe2" d="M207.54,73.73a1.47,1.47,0,0,0,1.58-.89c.08-.17.38-1,1-2.29s1.49-2.79,2.43-4.3,1.93-3,2.7-4,1.33-1.73,1.33-1.73c.51-.62.44-.7-.17-.16,0,0-.66.58-1.6,1.52s-2.15,2.23-3.33,3.6a50.88,50.88,0,0,0-3.15,4,17.78,17.78,0,0,0-1.44,2.38C206.52,72.71,206.88,73.64,207.54,73.73Z"/><path class="a1d65f60-1916-43e5-a972-f48a7525dbe2" d="M196.56,75.14a1.89,1.89,0,0,0,2.77.17,9.47,9.47,0,0,0,1-.85l1.9-1.91c.71-.8,1.5-1.71,2.31-2.68s1.61-2,2.39-3.06c1.58-2.08,3.14-4.1,4.39-5.52.61-.75,1.17-1.3,1.55-1.7l.61-.62c.82-.84.73-1-.22-.25l-.7.52a20.12,20.12,0,0,0-1.82,1.45c-1.49,1.23-3.38,3-5.25,4.82-.94.91-1.89,1.78-2.79,2.63s-1.78,1.55-2.55,2.2l-2,1.49c-.5.38-.88.56-1,.66A2,2,0,0,0,196.56,75.14Z"/><path class="a1d65f60-1916-43e5-a972-f48a7525dbe2" d="M238.09,72.61A3,3,0,0,0,242,71.47c.13-.16.41-.74.95-1.54s1.22-1.9,2-3.16,1.86-2.63,3-4.1,2.28-3,3.57-4.41l1.87-2.17,1.88-2c1.21-1.33,2.41-2.48,3.43-3.47s1.89-1.8,2.51-2.36l1-.87c1.3-1.17,1.17-1.36-.3-.4l-1.1.71c-.71.45-1.71,1.1-2.88,2s-2.56,1.8-4,2.95l-2.22,1.74-2.23,1.9c-1.54,1.25-2.93,2.67-4.34,4s-2.58,2.64-3.68,3.78l-2.6,3a16.69,16.69,0,0,0-1.19,1.54C236.65,70,236.84,71.85,238.09,72.61Z"/><path class="a1d65f60-1916-43e5-a972-f48a7525dbe2" d="M248.08,72a2.45,2.45,0,0,0,3.31-.72,89,89,0,0,1,8.43-10.48,42.8,42.8,0,0,1,6.5-5.6c.48-.31.92-.62,1.33-.87l1.06-.61a5.62,5.62,0,0,1,.69-.37l.25-.13c1.29-.63,1.24-.82-.16-.38l-.27.08a5.59,5.59,0,0,0-.76.27l-1.17.45c-.45.18-.94.42-1.49.67a43.15,43.15,0,0,0-7.56,4.7A72.5,72.5,0,0,0,248,68.57,2.41,2.41,0,0,0,248.08,72Z"/><path class="a1d65f60-1916-43e5-a972-f48a7525dbe2" d="M255,69.49a1.91,1.91,0,0,0,1.35.59,2.5,2.5,0,0,0,1.48-.45,25.49,25.49,0,0,1,3.1-2.11,47.65,47.65,0,0,1,6.84-3.06c2.56-.94,5.14-1.82,7-2.56s3.12-1.3,3.12-1.3c1.14-.52,1.07-.66-.12-.33,0,0-1.28.36-3.25.78s-4.63.89-7.35,1.45a47.3,47.3,0,0,0-7.65,2.12,20.89,20.89,0,0,0-3.88,2,2.46,2.46,0,0,0-1,1.48A1.58,1.58,0,0,0,255,69.49Z"/><path class="a1d65f60-1916-43e5-a972-f48a7525dbe2" d="M132.12,80.38c2.64,0,4.73-2.61,4.68-5.78,0-1.6-1.39-16-2.63-30-.54-7-1.2-13.89-1.37-19s-.44-8.58-.44-8.58c-.17-3.17-.58-3.19-.91,0,0,0-.37,3.41-.91,8.57s-1.06,12.09-1.6,19.13c-.91,14.09-1.69,28.51-1.68,30.07C127.31,77.89,129.49,80.41,132.12,80.38Z"/><path class="a1d65f60-1916-43e5-a972-f48a7525dbe2" d="M133.85,82.52c1.88-.94,2.54-3.51,1.45-5.76-.54-1.11-6.28-11-10.74-21.18l-1.66-3.79c-.51-1.27-1-2.51-1.47-3.71-1-2.39-1.74-4.67-2.4-6.62s-1.15-3.58-1.47-4.73-.51-1.81-.51-1.81c-.69-2.44-1-2.39-.72.14,0,0,.09.68.23,1.87s.32,2.92.72,5,.74,4.47,1.36,7c.29,1.29.59,2.62.9,4s.72,2.71,1.08,4.09a194.52,194.52,0,0,0,7.8,23.07C129.54,82.36,132,83.46,133.85,82.52Z"/><path class="a1d65f60-1916-43e5-a972-f48a7525dbe2" d="M137.52,72.49a2.69,2.69,0,0,0,2.58-2.66c0-.38.05-2.33.06-5,.06-1.36.19-2.89.29-4.53.06-.82.12-1.66.17-2.52l.09-1.28.18-1.28a91.31,91.31,0,0,1,1.54-9.26c.57-2.49.95-4.13.95-4.13.36-1.54.17-1.61-.42-.15,0,0-.64,1.57-1.6,4a90.39,90.39,0,0,0-3,9.09L138,56l-.28,1.28-.56,2.52c-.36,1.65-.73,3.21-1,4.59-.41,2.77-.7,4.77-.74,5.17A2.56,2.56,0,0,0,137.52,72.49Z"/><path class="ea7cfc8f-b877-4b81-8258-64a7feac26b8" d="M-21,24.14c139.68,62,278.88,51.5,465.56,10.25,32.09-7.09,66.06-9.13,101.43-8,12.87.41,25.9,1.23,39.1,2.39,161.74,14.14,347.34,77.32,512,22.25,215.11-71.92,306.65-74.44,362.18-44.31l2.56,386.81c-61.32-9.67-132.51-8.73-239,24.86-15.36,4.84-84.26-12.77-99.64-7.81-129.29,41.66-221-105.1-383.51-75.56-136.55,24.82-295.14,39.09-493.2,32.22-274.24-9.49-446.41-48.57-541-78.74l-1.65-249C-232.84-7.65-137.87-27.69-21,24.14Z"/></g></svg>