<svg id="efbe8806-38c4-4134-b0ee-3b42f27fc3ad" data-name="Capa 1" xmlns="http://www.w3.org/2000/svg" viewBox="0 0 520 200"><defs><style>.afe615f9-edb6-4c05-a299-32e5b8167f9f{fill:#fff;}.bad247a1-d632-413a-aa81-7034fb236c9b{opacity:0.2;}.be2918f7-14ac-41d3-9321-99b66fecc999{fill:#6b8df2;}</style></defs><path class="afe615f9-edb6-4c05-a299-32e5b8167f9f" d="M500.81,145.33A27,27,0,0,0,465,119.81a35.79,35.79,0,0,0-53.44-16.92,68.8,68.8,0,0,0-100.08-6.42A38.91,38.91,0,0,0,265.7,81.21a68.79,68.79,0,0,0-114,8.09,38.9,38.9,0,0,0-47.15,11.36A35.73,35.73,0,0,0,55,119.81a27,27,0,0,0-35.78,25.52Z"/><g class="bad247a1-d632-413a-aa81-7034fb236c9b"><path class="be2918f7-14ac-41d3-9321-99b66fecc999" d="M385.77,145.33a13.88,13.88,0,0,0-18.41-13.12,18.41,18.41,0,0,0-27.48-8.7,35.36,35.36,0,0,0-51.46-3.3,20.08,20.08,0,0,0-16.78-9,19.77,19.77,0,0,0-6.78,1.2,35.38,35.38,0,0,0-58.63,4.16A20,20,0,0,0,182,122.36a18.39,18.39,0,0,0-25.5,9.85,13.67,13.67,0,0,0-4.5-.76,13.9,13.9,0,0,0-13.9,13.88Z"/></g><g class="bad247a1-d632-413a-aa81-7034fb236c9b"><path class="be2918f7-14ac-41d3-9321-99b66fecc999" d="M175.22,84.25a1.75,1.75,0,0,1-1-.29,1.79,1.79,0,0,1-.5-2.47,20.67,20.67,0,0,1,3-3.61A20.25,20.25,0,0,1,199,74.39a16.52,16.52,0,0,1,2.92-3.59,16.88,16.88,0,0,1,22.66-.37,1.78,1.78,0,1,1-2.34,2.68,13.31,13.31,0,0,0-17.89.3,13.47,13.47,0,0,0-3,4.12,1.75,1.75,0,0,1-1.08,1,1.79,1.79,0,0,1-1.43-.16,16.6,16.6,0,0,0-19.6,2.17,16.18,16.18,0,0,0-2.5,3A1.78,1.78,0,0,1,175.22,84.25Z"/></g></svg>