<svg id="e1960389-b6a1-4586-8c2f-7ca43ef54525" data-name="Capa 1" xmlns="http://www.w3.org/2000/svg" viewBox="0 0 520 200"><defs><style>.b752d017-cc41-4532-a3fd-e57e48a9d823{fill:#fff;}.ae7e1573-c642-4dad-9d8a-2b3de03cbbe2{opacity:0.2;}.af807d7e-cef1-4b6b-a102-bb36a19d6220{fill:#6b8df2;}</style></defs><path class="b752d017-cc41-4532-a3fd-e57e48a9d823" d="M348.5,133.16c.05-.74.09-1.48.09-2.23a31.26,31.26,0,0,0-40.73-29.78,41.45,41.45,0,0,0-82,2.29,26.37,26.37,0,0,0-3.47-.24,25.76,25.76,0,0,0-23.2,14.56,19.41,19.41,0,0,0-27.78,15.4Z"/><g class="ae7e1573-c642-4dad-9d8a-2b3de03cbbe2"><path class="af807d7e-cef1-4b6b-a102-bb36a19d6220" d="M304.57,133.16c0-.37.05-.73.05-1.1a15.43,15.43,0,0,0-20.09-14.69,20.44,20.44,0,0,0-40.44,1.13,13.76,13.76,0,0,0-1.71-.12,12.72,12.72,0,0,0-11.45,7.18,9.49,9.49,0,0,0-4.16-1,9.61,9.61,0,0,0-9.54,8.56Z"/></g><g class="ae7e1573-c642-4dad-9d8a-2b3de03cbbe2"><path class="af807d7e-cef1-4b6b-a102-bb36a19d6220" d="M290.49,89a1.31,1.31,0,0,1-1.26-1,8.17,8.17,0,0,0-9.33-5.74,8.09,8.09,0,0,0-2.9,1.15,1.33,1.33,0,0,1-1.88-.52,10.24,10.24,0,0,0-10.88-5.35,9.91,9.91,0,0,0-2.27.71,1.32,1.32,0,0,1-1.74-.67,1.31,1.31,0,0,1,.67-1.74,12.71,12.71,0,0,1,15.88,4.68,10.65,10.65,0,0,1,2.65-.85,10.78,10.78,0,0,1,12.33,7.59,1.33,1.33,0,0,1-.9,1.64A1.5,1.5,0,0,1,290.49,89Z"/></g></svg>