<svg id="a294b178-a651-4ed8-b338-cf01154e7216" data-name="Capa 1" xmlns="http://www.w3.org/2000/svg" viewBox="0 0 520 200"><defs><style>.e801227e-35fb-4d56-9643-81f92e36646c{fill:#fff;}.f75c67f1-9fa1-46ce-94df-25f92c671bc7{opacity:0.2;}.b7b14ad2-7772-40a6-9de3-3127999367de{fill:#6b8df2;}</style></defs><path class="e801227e-35fb-4d56-9643-81f92e36646c" d="M428.48,133.77a22.17,22.17,0,0,0-22.12-20.92,21.91,21.91,0,0,0-9.23,2,48.72,48.72,0,0,0-95.33,1.39,22.14,22.14,0,0,0-23.92.18A25.69,25.69,0,0,0,256,101.61a48.73,48.73,0,0,0-93.82.33,28.8,28.8,0,0,0-3.09-.16A30.3,30.3,0,0,0,130.53,122a22.17,22.17,0,0,0-39,11.77Z"/><g class="f75c67f1-9fa1-46ce-94df-25f92c671bc7"><path class="b7b14ad2-7772-40a6-9de3-3127999367de" d="M239.62,133.77a7.47,7.47,0,0,0,.13-1.26,7.38,7.38,0,0,0-2.09-5.14v-.11l-.23-.12a7.37,7.37,0,0,0-10.3.1l-.19.1a11.53,11.53,0,0,0-9.81-6.65,21.85,21.85,0,0,0-42.07.14c-.46,0-.92-.07-1.39-.07a13.6,13.6,0,0,0-12.81,9.07,9.94,9.94,0,0,0-17.24,3.94Z"/></g><g class="f75c67f1-9fa1-46ce-94df-25f92c671bc7"><path class="b7b14ad2-7772-40a6-9de3-3127999367de" d="M387.76,133.77a6.86,6.86,0,0,0-10.28-5.5,14,14,0,0,0-12.72-8.21,14.29,14.29,0,0,0-3.15.37,22.45,22.45,0,0,0-40.91,5.92,12.77,12.77,0,0,0-16.35,7.42Z"/></g><g class="f75c67f1-9fa1-46ce-94df-25f92c671bc7"><path class="b7b14ad2-7772-40a6-9de3-3127999367de" d="M237.09,91.77a1.46,1.46,0,0,1-1.44-1.18,9,9,0,0,0-13-6.37,1.47,1.47,0,0,1-1.18.07,1.49,1.49,0,0,1-.84-.83,11.3,11.3,0,0,0-11.42-7.06,11.61,11.61,0,0,0-2.59.54,1.46,1.46,0,1,1-.92-2.77,14.13,14.13,0,0,1,17,6.85,11.84,11.84,0,0,1,3-.66A12,12,0,0,1,238.53,90a1.46,1.46,0,0,1-1.17,1.71A1.23,1.23,0,0,1,237.09,91.77Z"/></g></svg>