<svg id="fc53f370-8886-43ad-92ec-4fda0d534702" data-name="Capa 1" xmlns="http://www.w3.org/2000/svg" viewBox="0 0 520 200"><defs><style>.a1b44735-f662-4ac7-9274-a9ea41fd7e23{fill:#fff;}.b6873044-241a-4778-a8b2-ccb00d83e236{opacity:0.2;}.b70bf927-e8a9-474c-b644-58886f8f133d{fill:#6b8df2;}</style></defs><path class="a1b44735-f662-4ac7-9274-a9ea41fd7e23" d="M418.1,139.32a39.44,39.44,0,0,0-60.85-25.47,31.14,31.14,0,0,0-57.38,1.39,39.33,39.33,0,0,0-28.33-12.47,61.57,61.57,0,0,0-117.48,2.14,39.42,39.42,0,0,0-52.16,34.41Z"/><g class="b6873044-241a-4778-a8b2-ccb00d83e236"><path class="b70bf927-e8a9-474c-b644-58886f8f133d" d="M335.22,139.32a22.57,22.57,0,0,0-34.83-14.57,17.82,17.82,0,0,0-32.84.79,22.47,22.47,0,0,0-16.21-7.13,35.23,35.23,0,0,0-67.24,1.22,22.56,22.56,0,0,0-29.85,19.69Z"/></g><g class="b6873044-241a-4778-a8b2-ccb00d83e236"><path class="b70bf927-e8a9-474c-b644-58886f8f133d" d="M173.93,92.58h-.06a1.46,1.46,0,0,1-1.4-1.51,12.74,12.74,0,0,1,13.18-12.31,11.59,11.59,0,0,1,1.3.11,16.88,16.88,0,0,1,25.87-4.08A1.46,1.46,0,0,1,210.87,77,14,14,0,0,0,189,81.14a1.46,1.46,0,0,1-1.62.78,9.42,9.42,0,0,0-1.86-.25,10,10,0,0,0-7.05,2.64,9.8,9.8,0,0,0-3.12,6.86A1.45,1.45,0,0,1,173.93,92.58Z"/></g></svg>