<svg id="ac1c5254-c612-412f-ab4e-df9bf99700b7" data-name="Capa 1" xmlns="http://www.w3.org/2000/svg" viewBox="0 0 41.33 39.33"><defs><style>.a935850f-2f11-4d1e-8756-d227661bd3f6{fill:#5865f1;}.e6512796-7004-440d-b354-fd1386a55d74{fill:#fff;}</style></defs><circle class="a935850f-2f11-4d1e-8756-d227661bd3f6" cx="20.45" cy="20.33" r="14.28"/><path class="e6512796-7004-440d-b354-fd1386a55d74" d="M25.73,27.46a.1.1,0,0,1-.12-.05,13,13,0,0,1-1-1.65c0-.09,0-.1.06-.13a10.12,10.12,0,0,0,1.49-.7l.1-.07c.08,0,.05-.05,0-.08a3.15,3.15,0,0,1-.29-.22.12.12,0,0,0-.16,0A12.2,12.2,0,0,1,21,25.65a11.76,11.76,0,0,1-3.4-.38,13.05,13.05,0,0,1-2.1-.73s-.07-.06-.12,0l-.39.31c.13.07.24.15.36.2a10,10,0,0,0,1.24.59c.14.05.15.05.09.18l-.06.1a11.75,11.75,0,0,1-.94,1.5.1.1,0,0,1-.14.05,18.14,18.14,0,0,1-3.24-1.38,18.94,18.94,0,0,1-1.61-1s0,0-.05,0c-.21-.09-.25-.27-.26-.48a19.73,19.73,0,0,1,0-2.55,16.45,16.45,0,0,1,.95-4.65,18.9,18.9,0,0,1,2.12-4.12.24.24,0,0,1,.11-.09,17.07,17.07,0,0,1,4.06-1.26c.11,0,.16,0,.2.1a1.51,1.51,0,0,0,.09.18c.11.23.23.46.33.69s.09.13.19.09c.5-.06,1-.11,1.51-.13a16.52,16.52,0,0,1,2.11,0c.29,0,.57.05.86.1.08,0,.11,0,.14-.09.14-.31.29-.62.45-.92a.12.12,0,0,1,.14-.07,17.38,17.38,0,0,1,3.53,1l.29.13a.8.8,0,0,1,.52.39l.06.1a18.68,18.68,0,0,1,1.8,3.5,16.48,16.48,0,0,1,1,4.49,18,18,0,0,1,0,3.28.16.16,0,0,1-.07.13,17.82,17.82,0,0,1-3.62,2C26.71,27.13,26.22,27.29,25.73,27.46ZM22.93,22l0,0,.06.05a1.71,1.71,0,0,0,2.3-.12,2.14,2.14,0,0,0,.61-1.89A1.94,1.94,0,0,0,25.4,19s0,0,0,0h0s0-.05-.06-.08a1.72,1.72,0,0,0-2.33,0,2.13,2.13,0,0,0-.67,2.07,1.94,1.94,0,0,0,.6,1.11h0a0,0,0,0,0,0,0h0l0,0ZM16,22l0,.05a1.71,1.71,0,0,0,2.37,0,2.14,2.14,0,0,0,.62-1.95,1.92,1.92,0,0,0-.55-1.12,1.72,1.72,0,0,0-2.41-.12,2.11,2.11,0,0,0-.68,2A2,2,0,0,0,16,22Z"/></svg>