<svg id="aa862110-8078-4675-9601-de2cfb7338ac" data-name="Capa 1" xmlns="http://www.w3.org/2000/svg" xmlns:xlink="http://www.w3.org/1999/xlink" viewBox="0 0 41.33 39.33"><defs><style>.a38494cf-95be-4c8b-b7a2-2152d7493c31{fill:none;}.bcc04f72-6f23-4d2d-88da-fdb631a0ebee{clip-path:url(#abcfaee8-3a10-4aad-9145-c60641a40ec2);}.b0f97cdb-da54-452f-984c-2c286351f963{fill:url(#a8ad18cc-e932-4d81-9186-61537f2890d9);}.ec285d31-c4a7-4b4d-91de-3d812ecab8a9{fill:#e6e6e6;}.ed44172b-9c3c-4318-bc88-48e9a7384d7a{fill:#2181e1;}.ee0ce9b1-e879-4ba7-bb86-b04a85deaf0d{fill:#fff;}</style><clipPath id="abcfaee8-3a10-4aad-9145-c60641a40ec2"><rect class="a38494cf-95be-4c8b-b7a2-2152d7493c31" x="122.67" width="147.77" height="147.77" rx="73.89"/></clipPath><linearGradient id="a8ad18cc-e932-4d81-9186-61537f2890d9" x1="-48.84" y1="424.46" x2="-55.29" y2="403.05" gradientTransform="translate(179.22 -338.09) rotate(16.19)" gradientUnits="userSpaceOnUse"><stop offset="0" stop-color="#634b63"/><stop offset="0.04" stop-color="#644e67"/><stop offset="0.41" stop-color="#716c8f"/><stop offset="0.7" stop-color="#787ea7"/><stop offset="0.88" stop-color="#7b85b0"/></linearGradient></defs><g class="bcc04f72-6f23-4d2d-88da-fdb631a0ebee"><path class="b0f97cdb-da54-452f-984c-2c286351f963" d="M17.53,55.27A16.67,16.67,0,0,1,6.18,34.62a16.29,16.29,0,0,1,1.46-3.48,15.2,15.2,0,0,0-3,5.61,15.43,15.43,0,0,0,19.16,19.1A16.78,16.78,0,0,1,17.53,55.27Z"/><rect id="f7e89b0c-aa10-40bb-a811-43333ffbf269" data-name="s" class="ec285d31-c4a7-4b4d-91de-3d812ecab8a9" x="-39.13" y="-18.2" width="691.48" height="230.49"/><rect class="a38494cf-95be-4c8b-b7a2-2152d7493c31" x="-55.5" y="-208.29" width="389.17" height="582.83"/><rect class="a38494cf-95be-4c8b-b7a2-2152d7493c31" x="-54.77" y="-208.29" width="387.71" height="423.98"/></g><circle class="ed44172b-9c3c-4318-bc88-48e9a7384d7a" cx="20.67" cy="19.67" r="14.28"/><path class="ee0ce9b1-e879-4ba7-bb86-b04a85deaf0d" d="M17.18,11.91c.67.18,1.32.33,2,.53.38.12.57.07.51-.38a2.53,2.53,0,0,1,0-.55.94.94,0,0,1,1-.94,1,1,0,0,1,.89,1c0,.4,0,.79,0,1.18a.47.47,0,0,0,.23.43,11.31,11.31,0,0,1,3.63,4.17,3.28,3.28,0,0,1-.17,3.21,11.33,11.33,0,0,1-2,2.46c-.29.27-.63.16-1,.17-.73,0-.73,0-.73.7,0,1.13,0,1.08,1.13,1.14a2.58,2.58,0,0,0,2.36-1,2.45,2.45,0,0,1,1.37-.81c1.33-.35,2.65-.74,4-1.14.32-.1.46-.05.43.31a.29.29,0,0,0,0,.13.88.88,0,0,1-.64,1.1,3.75,3.75,0,0,0-1.83,1.69,17.24,17.24,0,0,1-1.53,2.26,3.08,3.08,0,0,1-2.5,1.16c-2.69,0-5.39,0-8.09,0a5.5,5.5,0,0,1-5.53-4.57C10.43,23,10.46,23,11.59,23h3.64c.28,0,.39,0,.4.37A1.67,1.67,0,0,0,17.34,25c.66,0,1.33,0,2,0,.23,0,.33-.06.32-.3q0-.61,0-1.23c0-.25-.11-.3-.33-.3-.54,0-1.09,0-1.64,0-.15,0-.36.08-.46-.09s.09-.3.17-.43a12.36,12.36,0,0,0,1.55-3,6.36,6.36,0,0,0-.12-3.54,17.53,17.53,0,0,0-1.53-3.82A.64.64,0,0,1,17.18,11.91Z"/><path class="ee0ce9b1-e879-4ba7-bb86-b04a85deaf0d" d="M14.08,21.18H12.17c-.44,0-.49-.08-.26-.43q2-3.19,4.07-6.39c.12-.18.27-.43.43,0a10.12,10.12,0,0,1,1.05,4.1,5.6,5.6,0,0,1-1,2.64c-.09.16-.26.13-.41.13Z"/></svg>