<svg id="fe362b38-2760-4427-848d-c053878257c1" data-name="Capa 1" xmlns="http://www.w3.org/2000/svg" xmlns:xlink="http://www.w3.org/1999/xlink" viewBox="0 0 41.33 39.33"><defs><style>.e7bdeab0-79aa-4736-905b-f37948bfa03d{fill:none;}.b61e7e5d-ce92-4fb0-889a-1d6a3f2b9a51{clip-path:url(#e4d9a720-7756-4d54-8b69-f0650b21a254);}.ac4c5944-d281-4553-8cb0-9bbc35187792{fill:#e6e6e6;}.b441ff8b-dff0-487c-a09b-a1b63dcbced1{fill:#55acee;}.ffca5469-0ea9-4f46-909a-ce57c10df2d9{fill:#fff;}</style><clipPath id="e4d9a720-7756-4d54-8b69-f0650b21a254"><rect class="e7bdeab0-79aa-4736-905b-f37948bfa03d" x="184" width="147.77" height="147.77" rx="73.89"/></clipPath></defs><g class="b61e7e5d-ce92-4fb0-889a-1d6a3f2b9a51"><rect id="a52dca68-b557-4b36-82de-26478d78fa6e" data-name="s" class="ac4c5944-d281-4553-8cb0-9bbc35187792" x="22.21" y="-18.2" width="691.48" height="230.49"/><rect class="e7bdeab0-79aa-4736-905b-f37948bfa03d" x="5.83" y="-208.29" width="389.17" height="582.83"/><rect class="e7bdeab0-79aa-4736-905b-f37948bfa03d" x="6.57" y="-208.29" width="387.71" height="423.98"/></g><circle class="b441ff8b-dff0-487c-a09b-a1b63dcbced1" cx="20.67" cy="19.67" r="14.28"/><path class="ffca5469-0ea9-4f46-909a-ce57c10df2d9" d="M17.78,27.18A10.72,10.72,0,0,0,28.57,16.39c0-.17,0-.33,0-.49a7.82,7.82,0,0,0,1.89-2,7.56,7.56,0,0,1-2.18.59,3.81,3.81,0,0,0,1.67-2.09,7.72,7.72,0,0,1-2.41.92A3.79,3.79,0,0,0,21,16a4,4,0,0,0,.1.86,10.74,10.74,0,0,1-7.81-4,3.74,3.74,0,0,0-.52,1.91,3.78,3.78,0,0,0,1.69,3.15,3.84,3.84,0,0,1-1.72-.47v0a3.79,3.79,0,0,0,3,3.71,3.61,3.61,0,0,1-1,.14,4.17,4.17,0,0,1-.71-.07,3.78,3.78,0,0,0,3.54,2.63,7.56,7.56,0,0,1-4.7,1.62,6.85,6.85,0,0,1-.91-.05,10.7,10.7,0,0,0,5.81,1.71"/></svg>